<svg xmlns="http://www.w3.org/2000/svg" xmlns:xlink="http://www.w3.org/1999/xlink" version="1.1" x="0px" y="0px" viewBox="0 0 100 100" enable-background="new 0 0 100 100" xml:space="preserve"><g><g><g><path d="M18.307,50.777c-0.206,0-0.413-0.08-0.556-0.23c-0.151-0.151-0.238-0.349-0.238-0.564c0-0.207,0.087-0.413,0.238-0.556     c0.294-0.302,0.818-0.302,1.12-0.008c0.151,0.151,0.23,0.357,0.23,0.564c0,0.206-0.08,0.413-0.23,0.564     C18.728,50.698,18.522,50.777,18.307,50.777z"></path></g><g><path d="M5.59,61.842c-0.127-0.421,0.111-0.866,0.532-0.993l0,0c0.413-0.127,0.858,0.111,0.985,0.532l0,0     c0.127,0.421-0.103,0.866-0.524,0.993l0,0c-0.08,0.024-0.159,0.032-0.23,0.032l0,0C6.011,62.406,5.693,62.183,5.59,61.842z      M8.752,60.603c-0.239-0.373-0.135-0.858,0.23-1.096l0,0c0.373-0.238,0.866-0.135,1.104,0.23l0,0     c0.239,0.365,0.135,0.858-0.238,1.096l0,0c-0.135,0.088-0.286,0.127-0.429,0.127l0,0C9.157,60.96,8.902,60.833,8.752,60.603z      M11.484,58.585c-0.31-0.318-0.302-0.818,0.016-1.128v0.008c0.31-0.31,0.818-0.302,1.12,0.008l0,0     c0.31,0.318,0.302,0.818-0.008,1.128l0,0c-0.159,0.151-0.358,0.223-0.556,0.223l0,0C11.849,58.823,11.643,58.744,11.484,58.585z      M13.827,56.115c-0.341-0.27-0.397-0.77-0.119-1.112l0,0c0.27-0.342,0.771-0.397,1.112-0.119l0,0     c0.342,0.27,0.397,0.77,0.119,1.112l0,0c-0.151,0.199-0.381,0.294-0.62,0.294l0,0C14.145,56.29,13.97,56.234,13.827,56.115z      M15.908,53.43c-0.365-0.254-0.445-0.755-0.19-1.112l0,0c0.254-0.358,0.747-0.437,1.112-0.183l0,0     c0.349,0.254,0.437,0.747,0.183,1.104l0,0c-0.151,0.214-0.397,0.334-0.652,0.334l0,0C16.202,53.573,16.043,53.525,15.908,53.43z"></path></g><g><path d="M2.993,62.89c-0.207,0-0.413-0.08-0.564-0.23c-0.143-0.143-0.23-0.349-0.23-0.556c0-0.214,0.087-0.421,0.23-0.564     c0.294-0.294,0.826-0.302,1.128,0c0.143,0.143,0.23,0.349,0.23,0.564c0,0.207-0.088,0.413-0.23,0.556     C3.406,62.811,3.199,62.89,2.993,62.89z"></path></g></g><g><g><path d="M80.891,50.324c-0.206,0-0.413-0.087-0.564-0.238c-0.143-0.143-0.23-0.349-0.23-0.556c0-0.214,0.087-0.421,0.23-0.564     c0.302-0.302,0.834-0.294,1.128,0c0.143,0.143,0.23,0.349,0.23,0.564c0,0.207-0.087,0.413-0.238,0.556     C81.304,50.237,81.098,50.324,80.891,50.324z"></path></g><g><path d="M82.377,47.377c-0.358-0.254-0.445-0.747-0.191-1.104l0,0l0,0l0,0c0.254-0.357,0.755-0.444,1.112-0.19l0,0     c0.358,0.254,0.437,0.755,0.183,1.112l0,0c-0.151,0.214-0.397,0.334-0.643,0.334l0,0C82.679,47.528,82.512,47.48,82.377,47.377z      M84.379,44.629c-0.342-0.27-0.397-0.77-0.119-1.112l0,0c0.278-0.342,0.778-0.397,1.12-0.127l0,0     c0.342,0.278,0.389,0.778,0.119,1.12l0,0c-0.159,0.199-0.389,0.294-0.619,0.294l0,0C84.704,44.804,84.529,44.748,84.379,44.629z      M86.579,42.04c-0.302-0.318-0.302-0.818,0.016-1.128l0,0l0,0l0,0c0.31-0.302,0.818-0.302,1.12,0.016l0,0     c0.31,0.31,0.302,0.818-0.008,1.12h-0.008c-0.151,0.151-0.349,0.23-0.548,0.23l0,0C86.944,42.278,86.737,42.198,86.579,42.04z      M89.12,39.776c-0.238-0.374-0.135-0.866,0.23-1.096l0,0c0.365-0.246,0.858-0.135,1.096,0.23l0,0     c0.239,0.365,0.135,0.858-0.23,1.096l0,0c-0.135,0.087-0.286,0.127-0.429,0.127l0,0C89.526,40.133,89.271,40.006,89.12,39.776z      M92.091,38.131c-0.127-0.421,0.111-0.866,0.532-0.993l0,0c0.413-0.127,0.858,0.111,0.985,0.533l0,0     c0.127,0.421-0.111,0.866-0.524,0.993l0,0c-0.08,0.016-0.159,0.032-0.23,0.032l0,0C92.512,38.696,92.195,38.473,92.091,38.131z"></path></g><g><path d="M96.206,38.203c-0.206,0-0.413-0.08-0.556-0.23c-0.151-0.143-0.239-0.349-0.239-0.564c0-0.207,0.088-0.413,0.239-0.556     c0.294-0.294,0.818-0.302,1.12-0.008c0.151,0.151,0.23,0.357,0.23,0.564c0,0.214-0.079,0.421-0.23,0.564     C96.619,38.123,96.42,38.203,96.206,38.203z"></path></g></g><g><rect x="2.306" y="48.419" width="93.903" height="0.794"></rect></g><g><path d="M26.254,39.317c-3.791,2.301-6.469,6.102-8.763,9.499h2.897c2.161-3.081,4.294-5.672,6.866-7.32    C26.805,40.84,26.468,40.104,26.254,39.317z"></path><path d="M80.005,48.817c-3.544,5.802-8.335,12.092-14.538,12.092l-0.681,0.024c-6.413-0.348-10.009-5.607-13.808-11.165    c-2.981-4.36-6.041-8.815-10.584-11.066c-0.146,0.81-0.424,1.573-0.816,2.267c3.873,2.024,6.6,6,9.433,10.144    c4.108,6.008,8.355,12.221,16.456,12.221l1.191-0.043v-0.061c7.074-0.724,12.185-7.805,15.892-14.016    c0.075-0.126,0.121-0.261,0.146-0.398H80.005z"></path></g><path d="M33.254,31.824c-3.081,0-5.588,2.507-5.588,5.588c0,3.081,2.507,5.588,5.588,5.588c3.081,0,5.588-2.507,5.588-5.588   C38.842,34.331,36.335,31.824,33.254,31.824z"></path></g></svg>